<mxfile host="Electron" agent="Mozilla/5.0 (Windows NT 10.0; Win64; x64) AppleWebKit/537.36 (KHTML, like Gecko) draw.io/26.0.9 Chrome/128.0.6613.186 Electron/32.2.5 Safari/537.36" version="26.0.9">
  <diagram id="C5RBs43oDa-KdzZeNtuy" name="Page-1">
    <mxGraphModel dx="1985" dy="955" grid="1" gridSize="10" guides="1" tooltips="1" connect="1" arrows="1" fold="1" page="1" pageScale="1" pageWidth="827" pageHeight="1169" math="0" shadow="0">
      <root>
        <mxCell id="WIyWlLk6GJQsqaUBKTNV-0" />
        <mxCell id="WIyWlLk6GJQsqaUBKTNV-1" parent="WIyWlLk6GJQsqaUBKTNV-0" />
        <mxCell id="SS-JV-x70gcV1BRMUb9N-1" value="Player" style="swimlane;fontStyle=1;align=center;verticalAlign=top;childLayout=stackLayout;horizontal=1;startSize=26;horizontalStack=0;resizeParent=1;resizeParentMax=0;resizeLast=0;collapsible=1;marginBottom=0;whiteSpace=wrap;html=1;" vertex="1" parent="WIyWlLk6GJQsqaUBKTNV-1">
          <mxGeometry x="300" y="321" width="160" height="170" as="geometry" />
        </mxCell>
        <mxCell id="SS-JV-x70gcV1BRMUb9N-2" value="- accountID: UUID&lt;div&gt;- name: String&lt;/div&gt;&lt;div&gt;- plays: int&lt;/div&gt;&lt;div&gt;- score: int&lt;/div&gt;" style="text;strokeColor=none;fillColor=none;align=left;verticalAlign=top;spacingLeft=4;spacingRight=4;overflow=hidden;rotatable=0;points=[[0,0.5],[1,0.5]];portConstraint=eastwest;whiteSpace=wrap;html=1;" vertex="1" parent="SS-JV-x70gcV1BRMUb9N-1">
          <mxGeometry y="26" width="160" height="74" as="geometry" />
        </mxCell>
        <mxCell id="SS-JV-x70gcV1BRMUb9N-3" value="" style="line;strokeWidth=1;fillColor=none;align=left;verticalAlign=middle;spacingTop=-1;spacingLeft=3;spacingRight=3;rotatable=0;labelPosition=right;points=[];portConstraint=eastwest;strokeColor=inherit;" vertex="1" parent="SS-JV-x70gcV1BRMUb9N-1">
          <mxGeometry y="100" width="160" height="8" as="geometry" />
        </mxCell>
        <mxCell id="SS-JV-x70gcV1BRMUb9N-4" value="+ getAccountID(): int&lt;div&gt;&lt;span style=&quot;background-color: transparent; color: light-dark(rgb(0, 0, 0), rgb(255, 255, 255));&quot;&gt;+ getPlays(): int&lt;/span&gt;&lt;br&gt;&lt;/div&gt;&lt;div&gt;+ getScore(): int&lt;br&gt;&lt;/div&gt;" style="text;strokeColor=none;fillColor=none;align=left;verticalAlign=top;spacingLeft=4;spacingRight=4;overflow=hidden;rotatable=0;points=[[0,0.5],[1,0.5]];portConstraint=eastwest;whiteSpace=wrap;html=1;" vertex="1" parent="SS-JV-x70gcV1BRMUb9N-1">
          <mxGeometry y="108" width="160" height="62" as="geometry" />
        </mxCell>
        <mxCell id="SS-JV-x70gcV1BRMUb9N-5" value="Game" style="swimlane;fontStyle=1;align=center;verticalAlign=top;childLayout=stackLayout;horizontal=1;startSize=26;horizontalStack=0;resizeParent=1;resizeParentMax=0;resizeLast=0;collapsible=1;marginBottom=0;whiteSpace=wrap;html=1;" vertex="1" parent="WIyWlLk6GJQsqaUBKTNV-1">
          <mxGeometry x="360" y="558" width="290" height="160" as="geometry" />
        </mxCell>
        <mxCell id="SS-JV-x70gcV1BRMUb9N-6" value="- players: Player[]&lt;div&gt;- winner: Player&lt;/div&gt;&lt;div&gt;- avgPlays: int&lt;/div&gt;" style="text;strokeColor=none;fillColor=none;align=left;verticalAlign=top;spacingLeft=4;spacingRight=4;overflow=hidden;rotatable=0;points=[[0,0.5],[1,0.5]];portConstraint=eastwest;whiteSpace=wrap;html=1;" vertex="1" parent="SS-JV-x70gcV1BRMUb9N-5">
          <mxGeometry y="26" width="290" height="54" as="geometry" />
        </mxCell>
        <mxCell id="SS-JV-x70gcV1BRMUb9N-7" value="" style="line;strokeWidth=1;fillColor=none;align=left;verticalAlign=middle;spacingTop=-1;spacingLeft=3;spacingRight=3;rotatable=0;labelPosition=right;points=[];portConstraint=eastwest;strokeColor=inherit;" vertex="1" parent="SS-JV-x70gcV1BRMUb9N-5">
          <mxGeometry y="80" width="290" height="8" as="geometry" />
        </mxCell>
        <mxCell id="SS-JV-x70gcV1BRMUb9N-8" value="&lt;div&gt;+ addPlayer(): void&lt;/div&gt;&lt;div&gt;+ startGame(): void&lt;/div&gt;&lt;div&gt;+ endGame(): void&lt;/div&gt;+ awardPoints(GameType, Player, Player[], int): void" style="text;strokeColor=none;fillColor=none;align=left;verticalAlign=top;spacingLeft=4;spacingRight=4;overflow=hidden;rotatable=0;points=[[0,0.5],[1,0.5]];portConstraint=eastwest;whiteSpace=wrap;html=1;" vertex="1" parent="SS-JV-x70gcV1BRMUb9N-5">
          <mxGeometry y="88" width="290" height="72" as="geometry" />
        </mxCell>
        <mxCell id="SS-JV-x70gcV1BRMUb9N-10" value="&amp;lt;&amp;lt;Uses&amp;gt;&amp;gt;" style="html=1;verticalAlign=bottom;endArrow=open;dashed=1;endSize=8;curved=0;rounded=0;exitX=0.25;exitY=0;exitDx=0;exitDy=0;entryX=0.83;entryY=1;entryDx=0;entryDy=0;entryPerimeter=0;" edge="1" parent="WIyWlLk6GJQsqaUBKTNV-1" source="SS-JV-x70gcV1BRMUb9N-5" target="SS-JV-x70gcV1BRMUb9N-4">
          <mxGeometry x="-0.2958" relative="1" as="geometry">
            <mxPoint x="380" y="600" as="sourcePoint" />
            <mxPoint x="433" y="493" as="targetPoint" />
            <mxPoint as="offset" />
          </mxGeometry>
        </mxCell>
        <mxCell id="SS-JV-x70gcV1BRMUb9N-11" value="ExperienceHandler" style="swimlane;fontStyle=1;align=center;verticalAlign=top;childLayout=stackLayout;horizontal=1;startSize=26;horizontalStack=0;resizeParent=1;resizeParentMax=0;resizeLast=0;collapsible=1;marginBottom=0;whiteSpace=wrap;html=1;" vertex="1" parent="WIyWlLk6GJQsqaUBKTNV-1">
          <mxGeometry x="405" y="783" width="200" height="200" as="geometry" />
        </mxCell>
        <mxCell id="SS-JV-x70gcV1BRMUb9N-12" value="&lt;div&gt;- participants: Player[]&lt;/div&gt;- winner: Player&lt;div&gt;- avgPlays: int&lt;br&gt;&lt;div&gt;&lt;br&gt;&lt;/div&gt;&lt;/div&gt;" style="text;strokeColor=none;fillColor=none;align=left;verticalAlign=top;spacingLeft=4;spacingRight=4;overflow=hidden;rotatable=0;points=[[0,0.5],[1,0.5]];portConstraint=eastwest;whiteSpace=wrap;html=1;" vertex="1" parent="SS-JV-x70gcV1BRMUb9N-11">
          <mxGeometry y="26" width="200" height="54" as="geometry" />
        </mxCell>
        <mxCell id="SS-JV-x70gcV1BRMUb9N-13" value="" style="line;strokeWidth=1;fillColor=none;align=left;verticalAlign=middle;spacingTop=-1;spacingLeft=3;spacingRight=3;rotatable=0;labelPosition=right;points=[];portConstraint=eastwest;strokeColor=inherit;" vertex="1" parent="SS-JV-x70gcV1BRMUb9N-11">
          <mxGeometry y="80" width="200" height="8" as="geometry" />
        </mxCell>
        <mxCell id="SS-JV-x70gcV1BRMUb9N-14" value="&lt;div&gt;- IncreaseIntensity(Player): void&lt;/div&gt;&lt;div&gt;- decrreaseIntensity(Player): void&lt;/div&gt;&lt;div&gt;- calculateLength(Player[], int): void&lt;/div&gt;- awardParticipation(Player[]): void&lt;div&gt;- awardWinner(Player): void&lt;/div&gt;&lt;div&gt;- awardQuickness(Player): void&lt;/div&gt;&lt;div&gt;- awardLongevity(Player[]): void&lt;/div&gt;" style="text;strokeColor=none;fillColor=none;align=left;verticalAlign=top;spacingLeft=4;spacingRight=4;overflow=hidden;rotatable=0;points=[[0,0.5],[1,0.5]];portConstraint=eastwest;whiteSpace=wrap;html=1;" vertex="1" parent="SS-JV-x70gcV1BRMUb9N-11">
          <mxGeometry y="88" width="200" height="112" as="geometry" />
        </mxCell>
        <mxCell id="SS-JV-x70gcV1BRMUb9N-17" value="&amp;lt;&amp;lt;Uses&amp;gt;&amp;gt;" style="html=1;verticalAlign=bottom;endArrow=open;dashed=1;endSize=8;curved=0;rounded=0;entryX=0.188;entryY=1.005;entryDx=0;entryDy=0;entryPerimeter=0;exitX=0;exitY=0.63;exitDx=0;exitDy=0;exitPerimeter=0;" edge="1" parent="WIyWlLk6GJQsqaUBKTNV-1" source="SS-JV-x70gcV1BRMUb9N-12" target="SS-JV-x70gcV1BRMUb9N-4">
          <mxGeometry x="0.0322" relative="1" as="geometry">
            <mxPoint x="380" y="843" as="sourcePoint" />
            <mxPoint x="330" y="493" as="targetPoint" />
            <Array as="points">
              <mxPoint x="330" y="843" />
            </Array>
            <mxPoint as="offset" />
          </mxGeometry>
        </mxCell>
        <mxCell id="SS-JV-x70gcV1BRMUb9N-18" value="&amp;lt;&amp;lt;Calls&amp;gt;&amp;gt;" style="html=1;verticalAlign=bottom;endArrow=open;dashed=1;endSize=8;curved=0;rounded=0;" edge="1" parent="WIyWlLk6GJQsqaUBKTNV-1" source="SS-JV-x70gcV1BRMUb9N-5" target="SS-JV-x70gcV1BRMUb9N-11">
          <mxGeometry relative="1" as="geometry">
            <mxPoint x="420" y="648" as="sourcePoint" />
            <mxPoint x="300" y="648" as="targetPoint" />
          </mxGeometry>
        </mxCell>
        <mxCell id="SS-JV-x70gcV1BRMUb9N-20" value="WhistGame" style="html=1;whiteSpace=wrap;" vertex="1" parent="WIyWlLk6GJQsqaUBKTNV-1">
          <mxGeometry x="707" y="693" width="110" height="50" as="geometry" />
        </mxCell>
        <mxCell id="SS-JV-x70gcV1BRMUb9N-21" value="CheckersGame" style="html=1;whiteSpace=wrap;" vertex="1" parent="WIyWlLk6GJQsqaUBKTNV-1">
          <mxGeometry x="707" y="613" width="110" height="50" as="geometry" />
        </mxCell>
        <mxCell id="SS-JV-x70gcV1BRMUb9N-22" value="ConnectGame" style="html=1;whiteSpace=wrap;" vertex="1" parent="WIyWlLk6GJQsqaUBKTNV-1">
          <mxGeometry x="707" y="533" width="110" height="50" as="geometry" />
        </mxCell>
        <mxCell id="SS-JV-x70gcV1BRMUb9N-23" value="" style="endArrow=block;endSize=16;endFill=0;html=1;rounded=0;exitX=0;exitY=0.5;exitDx=0;exitDy=0;" edge="1" parent="WIyWlLk6GJQsqaUBKTNV-1" source="SS-JV-x70gcV1BRMUb9N-21" target="SS-JV-x70gcV1BRMUb9N-5">
          <mxGeometry x="0.3137" y="15" width="160" relative="1" as="geometry">
            <mxPoint x="610" y="663" as="sourcePoint" />
            <mxPoint x="770" y="663" as="targetPoint" />
            <mxPoint as="offset" />
          </mxGeometry>
        </mxCell>
        <mxCell id="SS-JV-x70gcV1BRMUb9N-25" value="" style="endArrow=block;endSize=16;endFill=0;html=1;rounded=0;exitX=0;exitY=0.5;exitDx=0;exitDy=0;" edge="1" parent="WIyWlLk6GJQsqaUBKTNV-1" source="SS-JV-x70gcV1BRMUb9N-22" target="SS-JV-x70gcV1BRMUb9N-5">
          <mxGeometry x="0.4545" y="-25" width="160" relative="1" as="geometry">
            <mxPoint x="690" y="648" as="sourcePoint" />
            <mxPoint x="580" y="648" as="targetPoint" />
            <mxPoint as="offset" />
            <Array as="points">
              <mxPoint x="690" y="558" />
              <mxPoint x="690" y="638" />
            </Array>
          </mxGeometry>
        </mxCell>
        <mxCell id="SS-JV-x70gcV1BRMUb9N-26" value="" style="endArrow=block;endSize=16;endFill=0;html=1;rounded=0;exitX=0;exitY=0.5;exitDx=0;exitDy=0;" edge="1" parent="WIyWlLk6GJQsqaUBKTNV-1" source="SS-JV-x70gcV1BRMUb9N-20" target="SS-JV-x70gcV1BRMUb9N-5">
          <mxGeometry x="0.4545" y="-25" width="160" relative="1" as="geometry">
            <mxPoint x="680" y="750" as="sourcePoint" />
            <mxPoint x="580" y="648" as="targetPoint" />
            <mxPoint as="offset" />
            <Array as="points">
              <mxPoint x="690" y="718" />
              <mxPoint x="690" y="638" />
            </Array>
          </mxGeometry>
        </mxCell>
        <mxCell id="SS-JV-x70gcV1BRMUb9N-31" value="MatchmakingHandler" style="swimlane;fontStyle=1;align=center;verticalAlign=top;childLayout=stackLayout;horizontal=1;startSize=26;horizontalStack=0;resizeParent=1;resizeParentMax=0;resizeLast=0;collapsible=1;marginBottom=0;whiteSpace=wrap;html=1;" vertex="1" parent="WIyWlLk6GJQsqaUBKTNV-1">
          <mxGeometry x="540" y="203" width="240" height="120" as="geometry" />
        </mxCell>
        <mxCell id="SS-JV-x70gcV1BRMUb9N-32" value="&lt;div&gt;- searching: PlayerAccount[]&lt;/div&gt;&lt;div&gt;- matched: Player[]&lt;/div&gt;" style="text;strokeColor=none;fillColor=none;align=left;verticalAlign=top;spacingLeft=4;spacingRight=4;overflow=hidden;rotatable=0;points=[[0,0.5],[1,0.5]];portConstraint=eastwest;whiteSpace=wrap;html=1;" vertex="1" parent="SS-JV-x70gcV1BRMUb9N-31">
          <mxGeometry y="26" width="240" height="44" as="geometry" />
        </mxCell>
        <mxCell id="SS-JV-x70gcV1BRMUb9N-33" value="" style="line;strokeWidth=1;fillColor=none;align=left;verticalAlign=middle;spacingTop=-1;spacingLeft=3;spacingRight=3;rotatable=0;labelPosition=right;points=[];portConstraint=eastwest;strokeColor=inherit;" vertex="1" parent="SS-JV-x70gcV1BRMUb9N-31">
          <mxGeometry y="70" width="240" height="8" as="geometry" />
        </mxCell>
        <mxCell id="SS-JV-x70gcV1BRMUb9N-34" value="- findCloseMatches(PlayerAccount[]): void&lt;div&gt;- initiateGame(Player[]): void&lt;/div&gt;" style="text;strokeColor=none;fillColor=none;align=left;verticalAlign=top;spacingLeft=4;spacingRight=4;overflow=hidden;rotatable=0;points=[[0,0.5],[1,0.5]];portConstraint=eastwest;whiteSpace=wrap;html=1;" vertex="1" parent="SS-JV-x70gcV1BRMUb9N-31">
          <mxGeometry y="78" width="240" height="42" as="geometry" />
        </mxCell>
        <mxCell id="SS-JV-x70gcV1BRMUb9N-35" value="PlayerAccount" style="swimlane;fontStyle=1;align=center;verticalAlign=top;childLayout=stackLayout;horizontal=1;startSize=26;horizontalStack=0;resizeParent=1;resizeParentMax=0;resizeLast=0;collapsible=1;marginBottom=0;whiteSpace=wrap;html=1;" vertex="1" parent="WIyWlLk6GJQsqaUBKTNV-1">
          <mxGeometry x="10" y="186" width="220" height="440" as="geometry" />
        </mxCell>
        <mxCell id="SS-JV-x70gcV1BRMUb9N-36" value="- accountID: UUID&lt;div&gt;- username: String&lt;/div&gt;&lt;div&gt;- accountLevel: int&lt;/div&gt;&lt;div&gt;- intensityLevel: float&lt;/div&gt;&lt;div&gt;- connectLevel: int&lt;/div&gt;&lt;div&gt;- connectPoints: int&lt;/div&gt;&lt;div&gt;- connectPlays: int&lt;/div&gt;&lt;div&gt;- connectWins: int&lt;/div&gt;&lt;div&gt;- checkersLevel: int&lt;/div&gt;&lt;div&gt;- checkersPoints: int&lt;/div&gt;&lt;div&gt;- checkersPlays: int&lt;/div&gt;&lt;div&gt;- checkersWins: int&lt;/div&gt;&lt;div&gt;- whistLevel: int&lt;/div&gt;&lt;div&gt;- whistPoints: int&lt;/div&gt;&lt;div&gt;- whistPlays: int&lt;/div&gt;&lt;div&gt;- whistWins: int&lt;/div&gt;&lt;div&gt;&lt;br&gt;&lt;/div&gt;&lt;div&gt;&lt;br&gt;&lt;/div&gt;" style="text;strokeColor=none;fillColor=none;align=left;verticalAlign=top;spacingLeft=4;spacingRight=4;overflow=hidden;rotatable=0;points=[[0,0.5],[1,0.5]];portConstraint=eastwest;whiteSpace=wrap;html=1;" vertex="1" parent="SS-JV-x70gcV1BRMUb9N-35">
          <mxGeometry y="26" width="220" height="244" as="geometry" />
        </mxCell>
        <mxCell id="SS-JV-x70gcV1BRMUb9N-37" value="" style="line;strokeWidth=1;fillColor=none;align=left;verticalAlign=middle;spacingTop=-1;spacingLeft=3;spacingRight=3;rotatable=0;labelPosition=right;points=[];portConstraint=eastwest;strokeColor=inherit;" vertex="1" parent="SS-JV-x70gcV1BRMUb9N-35">
          <mxGeometry y="270" width="220" height="8" as="geometry" />
        </mxCell>
        <mxCell id="SS-JV-x70gcV1BRMUb9N-38" value="+ getAcountLevel(): int&lt;div&gt;+ getAccountPoints(): int&lt;/div&gt;&lt;div&gt;+ getIntensityLevel(): float&lt;br&gt;&lt;div&gt;+ getGameLevel(GameType): int&lt;/div&gt;&lt;div&gt;+ getGamePoints(GameType): int&lt;/div&gt;&lt;div&gt;+ setAccountLevel(int): void&lt;/div&gt;&lt;div&gt;+ setAccountPoints(int): void&lt;/div&gt;&lt;div&gt;+ setIntensityLevel(float): void&lt;/div&gt;&lt;div&gt;+ setGameLevel(GameType, int): void&lt;/div&gt;&lt;div&gt;+ setGamePoints(GameType, int): void&lt;/div&gt;&lt;/div&gt;" style="text;strokeColor=none;fillColor=none;align=left;verticalAlign=top;spacingLeft=4;spacingRight=4;overflow=hidden;rotatable=0;points=[[0,0.5],[1,0.5]];portConstraint=eastwest;whiteSpace=wrap;html=1;" vertex="1" parent="SS-JV-x70gcV1BRMUb9N-35">
          <mxGeometry y="278" width="220" height="162" as="geometry" />
        </mxCell>
        <mxCell id="SS-JV-x70gcV1BRMUb9N-39" value="&amp;lt;&amp;lt;Uses&amp;gt;&amp;gt;" style="html=1;verticalAlign=bottom;endArrow=open;dashed=1;endSize=8;curved=0;rounded=0;exitX=-0.002;exitY=0.551;exitDx=0;exitDy=0;exitPerimeter=0;entryX=1;entryY=0.168;entryDx=0;entryDy=0;entryPerimeter=0;" edge="1" parent="WIyWlLk6GJQsqaUBKTNV-1" source="SS-JV-x70gcV1BRMUb9N-32" target="SS-JV-x70gcV1BRMUb9N-36">
          <mxGeometry relative="1" as="geometry">
            <mxPoint x="530" y="253" as="sourcePoint" />
            <mxPoint x="270" y="253" as="targetPoint" />
          </mxGeometry>
        </mxCell>
        <mxCell id="SS-JV-x70gcV1BRMUb9N-40" value="&amp;lt;&amp;lt;Calls&amp;gt;&amp;gt;" style="html=1;verticalAlign=bottom;endArrow=open;dashed=1;endSize=8;curved=0;rounded=0;entryX=0.848;entryY=0;entryDx=0;entryDy=0;entryPerimeter=0;exitX=0.275;exitY=1.01;exitDx=0;exitDy=0;exitPerimeter=0;" edge="1" parent="WIyWlLk6GJQsqaUBKTNV-1" source="SS-JV-x70gcV1BRMUb9N-34" target="SS-JV-x70gcV1BRMUb9N-5">
          <mxGeometry relative="1" as="geometry">
            <mxPoint x="606" y="330" as="sourcePoint" />
            <mxPoint x="570" y="543" as="targetPoint" />
          </mxGeometry>
        </mxCell>
        <mxCell id="SS-JV-x70gcV1BRMUb9N-41" value="&amp;lt;&amp;lt;Uses&amp;gt;&amp;gt;" style="html=1;verticalAlign=bottom;endArrow=open;dashed=1;endSize=8;curved=0;rounded=0;" edge="1" parent="WIyWlLk6GJQsqaUBKTNV-1" source="SS-JV-x70gcV1BRMUb9N-1" target="SS-JV-x70gcV1BRMUb9N-35">
          <mxGeometry relative="1" as="geometry">
            <mxPoint x="550" y="263" as="sourcePoint" />
            <mxPoint x="270" y="392" as="targetPoint" />
          </mxGeometry>
        </mxCell>
        <mxCell id="SS-JV-x70gcV1BRMUb9N-43" value="&amp;lt;&amp;lt;Uses&amp;gt;&amp;gt;" style="html=1;verticalAlign=bottom;endArrow=open;dashed=1;endSize=8;curved=0;rounded=0;exitX=-0.002;exitY=0.241;exitDx=0;exitDy=0;exitPerimeter=0;entryX=0.499;entryY=0.998;entryDx=0;entryDy=0;entryPerimeter=0;" edge="1" parent="WIyWlLk6GJQsqaUBKTNV-1" source="SS-JV-x70gcV1BRMUb9N-14" target="SS-JV-x70gcV1BRMUb9N-38">
          <mxGeometry x="0.4611" relative="1" as="geometry">
            <mxPoint x="380" y="893" as="sourcePoint" />
            <mxPoint x="120" y="643" as="targetPoint" />
            <Array as="points">
              <mxPoint x="120" y="898" />
            </Array>
            <mxPoint as="offset" />
          </mxGeometry>
        </mxCell>
        <mxCell id="SS-JV-x70gcV1BRMUb9N-47" value="0..*" style="text;html=1;align=center;verticalAlign=middle;whiteSpace=wrap;rounded=0;" vertex="1" parent="WIyWlLk6GJQsqaUBKTNV-1">
          <mxGeometry x="560" y="528" width="60" height="30" as="geometry" />
        </mxCell>
        <mxCell id="SS-JV-x70gcV1BRMUb9N-49" value="0..*" style="text;html=1;align=center;verticalAlign=middle;whiteSpace=wrap;rounded=0;" vertex="1" parent="WIyWlLk6GJQsqaUBKTNV-1">
          <mxGeometry x="384" y="491" width="60" height="30" as="geometry" />
        </mxCell>
        <mxCell id="SS-JV-x70gcV1BRMUb9N-50" value="0..*" style="text;html=1;align=center;verticalAlign=middle;whiteSpace=wrap;rounded=0;" vertex="1" parent="WIyWlLk6GJQsqaUBKTNV-1">
          <mxGeometry x="280" y="491" width="60" height="30" as="geometry" />
        </mxCell>
        <mxCell id="SS-JV-x70gcV1BRMUb9N-52" value="0..*" style="text;html=1;align=center;verticalAlign=middle;whiteSpace=wrap;rounded=0;" vertex="1" parent="WIyWlLk6GJQsqaUBKTNV-1">
          <mxGeometry x="220" y="223" width="60" height="30" as="geometry" />
        </mxCell>
        <mxCell id="SS-JV-x70gcV1BRMUb9N-53" value="0..*" style="text;html=1;align=center;verticalAlign=middle;whiteSpace=wrap;rounded=0;" vertex="1" parent="WIyWlLk6GJQsqaUBKTNV-1">
          <mxGeometry x="70" y="626" width="60" height="30" as="geometry" />
        </mxCell>
        <mxCell id="SS-JV-x70gcV1BRMUb9N-55" value="1" style="text;html=1;align=center;verticalAlign=middle;whiteSpace=wrap;rounded=0;" vertex="1" parent="WIyWlLk6GJQsqaUBKTNV-1">
          <mxGeometry x="460" y="753" width="60" height="30" as="geometry" />
        </mxCell>
        <mxCell id="SS-JV-x70gcV1BRMUb9N-57" value="1" style="text;html=1;align=center;verticalAlign=middle;whiteSpace=wrap;rounded=0;" vertex="1" parent="WIyWlLk6GJQsqaUBKTNV-1">
          <mxGeometry x="210" y="369" width="60" height="30" as="geometry" />
        </mxCell>
      </root>
    </mxGraphModel>
  </diagram>
</mxfile>
